<mxfile host="Electron" modified="2024-11-27T19:10:10.323Z" agent="Mozilla/5.0 (Windows NT 10.0; Win64; x64) AppleWebKit/537.36 (KHTML, like Gecko) draw.io/23.0.2 Chrome/120.0.6099.109 Electron/28.1.0 Safari/537.36" etag="yKqPkBjSKEFtM3MeseQe" version="23.0.2" type="device">
  <diagram id="C5RBs43oDa-KdzZeNtuy" name="Page-1">
    <mxGraphModel dx="814" dy="554" grid="1" gridSize="10" guides="1" tooltips="1" connect="1" arrows="1" fold="1" page="1" pageScale="1" pageWidth="827" pageHeight="1169" math="0" shadow="0">
      <root>
        <mxCell id="WIyWlLk6GJQsqaUBKTNV-0" />
        <mxCell id="WIyWlLk6GJQsqaUBKTNV-1" parent="WIyWlLk6GJQsqaUBKTNV-0" />
        <mxCell id="9VNOGcir4t3zfCMRs3BQ-12" style="edgeStyle=orthogonalEdgeStyle;rounded=0;orthogonalLoop=1;jettySize=auto;html=1;curved=1;entryX=1.012;entryY=0.421;entryDx=0;entryDy=0;entryPerimeter=0;" parent="WIyWlLk6GJQsqaUBKTNV-1" source="9VNOGcir4t3zfCMRs3BQ-0" target="9VNOGcir4t3zfCMRs3BQ-14" edge="1">
          <mxGeometry relative="1" as="geometry">
            <mxPoint x="510" y="375" as="targetPoint" />
            <Array as="points">
              <mxPoint x="850" y="270" />
              <mxPoint x="850" y="680" />
            </Array>
          </mxGeometry>
        </mxCell>
        <mxCell id="9VNOGcir4t3zfCMRs3BQ-28" style="edgeStyle=orthogonalEdgeStyle;rounded=0;orthogonalLoop=1;jettySize=auto;html=1;entryX=0;entryY=0.5;entryDx=0;entryDy=0;curved=1;" parent="WIyWlLk6GJQsqaUBKTNV-1" source="9VNOGcir4t3zfCMRs3BQ-0" target="9VNOGcir4t3zfCMRs3BQ-10" edge="1">
          <mxGeometry relative="1" as="geometry" />
        </mxCell>
        <mxCell id="9VNOGcir4t3zfCMRs3BQ-0" value="Guest" style="shape=umlActor;verticalLabelPosition=bottom;verticalAlign=top;html=1;outlineConnect=0;" parent="WIyWlLk6GJQsqaUBKTNV-1" vertex="1">
          <mxGeometry x="230" y="260" width="30" height="60" as="geometry" />
        </mxCell>
        <mxCell id="9VNOGcir4t3zfCMRs3BQ-42" style="edgeStyle=orthogonalEdgeStyle;rounded=0;orthogonalLoop=1;jettySize=auto;html=1;entryX=0;entryY=0.5;entryDx=0;entryDy=0;curved=1;" parent="WIyWlLk6GJQsqaUBKTNV-1" source="9VNOGcir4t3zfCMRs3BQ-1" target="9VNOGcir4t3zfCMRs3BQ-38" edge="1">
          <mxGeometry relative="1" as="geometry" />
        </mxCell>
        <mxCell id="9VNOGcir4t3zfCMRs3BQ-1" value="Administrator" style="shape=umlActor;verticalLabelPosition=bottom;verticalAlign=top;html=1;outlineConnect=0;" parent="WIyWlLk6GJQsqaUBKTNV-1" vertex="1">
          <mxGeometry x="250" y="1010" width="30" height="60" as="geometry" />
        </mxCell>
        <mxCell id="9VNOGcir4t3zfCMRs3BQ-27" style="edgeStyle=orthogonalEdgeStyle;rounded=0;orthogonalLoop=1;jettySize=auto;html=1;entryX=0;entryY=0.5;entryDx=0;entryDy=0;curved=1;" parent="WIyWlLk6GJQsqaUBKTNV-1" source="9VNOGcir4t3zfCMRs3BQ-2" target="9VNOGcir4t3zfCMRs3BQ-19" edge="1">
          <mxGeometry relative="1" as="geometry" />
        </mxCell>
        <mxCell id="9VNOGcir4t3zfCMRs3BQ-2" value="User" style="shape=umlActor;verticalLabelPosition=bottom;verticalAlign=top;html=1;outlineConnect=0;" parent="WIyWlLk6GJQsqaUBKTNV-1" vertex="1">
          <mxGeometry x="230" y="380" width="30" height="60" as="geometry" />
        </mxCell>
        <mxCell id="9VNOGcir4t3zfCMRs3BQ-10" value="аторизация" style="ellipse;whiteSpace=wrap;html=1;" parent="WIyWlLk6GJQsqaUBKTNV-1" vertex="1">
          <mxGeometry x="440" y="480" width="140" height="70" as="geometry" />
        </mxCell>
        <mxCell id="9VNOGcir4t3zfCMRs3BQ-25" style="edgeStyle=orthogonalEdgeStyle;rounded=0;orthogonalLoop=1;jettySize=auto;html=1;entryX=1;entryY=0.5;entryDx=0;entryDy=0;curved=1;dashed=1;dashPattern=8 8;" parent="WIyWlLk6GJQsqaUBKTNV-1" source="9VNOGcir4t3zfCMRs3BQ-14" target="9VNOGcir4t3zfCMRs3BQ-19" edge="1">
          <mxGeometry relative="1" as="geometry" />
        </mxCell>
        <mxCell id="9VNOGcir4t3zfCMRs3BQ-29" value="include" style="edgeLabel;html=1;align=center;verticalAlign=middle;resizable=0;points=[];" parent="9VNOGcir4t3zfCMRs3BQ-25" vertex="1" connectable="0">
          <mxGeometry x="-0.0607" y="1" relative="1" as="geometry">
            <mxPoint as="offset" />
          </mxGeometry>
        </mxCell>
        <mxCell id="9VNOGcir4t3zfCMRs3BQ-30" value="include" style="edgeLabel;html=1;align=center;verticalAlign=middle;resizable=0;points=[];" parent="9VNOGcir4t3zfCMRs3BQ-25" vertex="1" connectable="0">
          <mxGeometry x="-0.0607" y="1" relative="1" as="geometry">
            <mxPoint x="4" y="69" as="offset" />
          </mxGeometry>
        </mxCell>
        <mxCell id="9VNOGcir4t3zfCMRs3BQ-31" value="include" style="edgeLabel;html=1;align=center;verticalAlign=middle;resizable=0;points=[];" parent="9VNOGcir4t3zfCMRs3BQ-25" vertex="1" connectable="0">
          <mxGeometry x="-0.0607" y="1" relative="1" as="geometry">
            <mxPoint x="4" y="-241" as="offset" />
          </mxGeometry>
        </mxCell>
        <mxCell id="9VNOGcir4t3zfCMRs3BQ-32" value="include" style="edgeLabel;html=1;align=center;verticalAlign=middle;resizable=0;points=[];" parent="9VNOGcir4t3zfCMRs3BQ-25" vertex="1" connectable="0">
          <mxGeometry x="-0.0607" y="1" relative="1" as="geometry">
            <mxPoint x="4" y="-151" as="offset" />
          </mxGeometry>
        </mxCell>
        <mxCell id="9VNOGcir4t3zfCMRs3BQ-35" value="extend" style="edgeLabel;html=1;align=center;verticalAlign=middle;resizable=0;points=[];" parent="9VNOGcir4t3zfCMRs3BQ-25" vertex="1" connectable="0">
          <mxGeometry x="-0.0607" y="1" relative="1" as="geometry">
            <mxPoint x="224" y="99" as="offset" />
          </mxGeometry>
        </mxCell>
        <mxCell id="9VNOGcir4t3zfCMRs3BQ-48" value="include" style="edgeLabel;html=1;align=center;verticalAlign=middle;resizable=0;points=[];" parent="9VNOGcir4t3zfCMRs3BQ-25" vertex="1" connectable="0">
          <mxGeometry x="-0.0607" y="1" relative="1" as="geometry">
            <mxPoint x="54" y="269" as="offset" />
          </mxGeometry>
        </mxCell>
        <mxCell id="9VNOGcir4t3zfCMRs3BQ-49" value="extend" style="edgeLabel;html=1;align=center;verticalAlign=middle;resizable=0;points=[];" parent="9VNOGcir4t3zfCMRs3BQ-25" vertex="1" connectable="0">
          <mxGeometry x="-0.0607" y="1" relative="1" as="geometry">
            <mxPoint x="54" y="339" as="offset" />
          </mxGeometry>
        </mxCell>
        <mxCell id="9VNOGcir4t3zfCMRs3BQ-50" value="extend" style="edgeLabel;html=1;align=center;verticalAlign=middle;resizable=0;points=[];" parent="9VNOGcir4t3zfCMRs3BQ-25" vertex="1" connectable="0">
          <mxGeometry x="-0.0607" y="1" relative="1" as="geometry">
            <mxPoint x="54" y="399" as="offset" />
          </mxGeometry>
        </mxCell>
        <mxCell id="9VNOGcir4t3zfCMRs3BQ-55" value="extend" style="edgeLabel;html=1;align=center;verticalAlign=middle;resizable=0;points=[];" parent="9VNOGcir4t3zfCMRs3BQ-25" vertex="1" connectable="0">
          <mxGeometry x="-0.0607" y="1" relative="1" as="geometry">
            <mxPoint x="234" y="19" as="offset" />
          </mxGeometry>
        </mxCell>
        <mxCell id="9VNOGcir4t3zfCMRs3BQ-14" value="просмотр" style="ellipse;whiteSpace=wrap;html=1;" parent="WIyWlLk6GJQsqaUBKTNV-1" vertex="1">
          <mxGeometry x="650" y="650" width="140" height="70" as="geometry" />
        </mxCell>
        <mxCell id="9VNOGcir4t3zfCMRs3BQ-26" style="edgeStyle=orthogonalEdgeStyle;rounded=0;orthogonalLoop=1;jettySize=auto;html=1;entryX=1;entryY=0.5;entryDx=0;entryDy=0;curved=1;dashed=1;dashPattern=8 8;" parent="WIyWlLk6GJQsqaUBKTNV-1" source="9VNOGcir4t3zfCMRs3BQ-15" target="9VNOGcir4t3zfCMRs3BQ-19" edge="1">
          <mxGeometry relative="1" as="geometry" />
        </mxCell>
        <mxCell id="9VNOGcir4t3zfCMRs3BQ-15" value="бронирование мероприятия" style="ellipse;whiteSpace=wrap;html=1;" parent="WIyWlLk6GJQsqaUBKTNV-1" vertex="1">
          <mxGeometry x="650" y="780" width="140" height="70" as="geometry" />
        </mxCell>
        <mxCell id="9VNOGcir4t3zfCMRs3BQ-19" value="заказ мероприятия" style="ellipse;whiteSpace=wrap;html=1;" parent="WIyWlLk6GJQsqaUBKTNV-1" vertex="1">
          <mxGeometry x="440" y="710" width="140" height="70" as="geometry" />
        </mxCell>
        <mxCell id="9VNOGcir4t3zfCMRs3BQ-22" style="edgeStyle=orthogonalEdgeStyle;rounded=0;orthogonalLoop=1;jettySize=auto;html=1;entryX=1;entryY=0.5;entryDx=0;entryDy=0;curved=1;dashed=1;dashPattern=8 8;" parent="WIyWlLk6GJQsqaUBKTNV-1" source="9VNOGcir4t3zfCMRs3BQ-20" target="9VNOGcir4t3zfCMRs3BQ-10" edge="1">
          <mxGeometry relative="1" as="geometry" />
        </mxCell>
        <mxCell id="9VNOGcir4t3zfCMRs3BQ-20" value="регистрация" style="ellipse;whiteSpace=wrap;html=1;" parent="WIyWlLk6GJQsqaUBKTNV-1" vertex="1">
          <mxGeometry x="660" y="400" width="140" height="70" as="geometry" />
        </mxCell>
        <mxCell id="9VNOGcir4t3zfCMRs3BQ-24" style="edgeStyle=orthogonalEdgeStyle;rounded=0;orthogonalLoop=1;jettySize=auto;html=1;entryX=1;entryY=0.5;entryDx=0;entryDy=0;curved=1;dashed=1;dashPattern=8 8;" parent="WIyWlLk6GJQsqaUBKTNV-1" source="9VNOGcir4t3zfCMRs3BQ-21" target="9VNOGcir4t3zfCMRs3BQ-10" edge="1">
          <mxGeometry relative="1" as="geometry" />
        </mxCell>
        <mxCell id="9VNOGcir4t3zfCMRs3BQ-21" value="вход" style="ellipse;whiteSpace=wrap;html=1;" parent="WIyWlLk6GJQsqaUBKTNV-1" vertex="1">
          <mxGeometry x="660" y="560" width="140" height="70" as="geometry" />
        </mxCell>
        <mxCell id="9VNOGcir4t3zfCMRs3BQ-34" style="edgeStyle=orthogonalEdgeStyle;rounded=0;orthogonalLoop=1;jettySize=auto;html=1;entryX=1;entryY=0.5;entryDx=0;entryDy=0;dashed=1;dashPattern=8 8;" parent="WIyWlLk6GJQsqaUBKTNV-1" source="9VNOGcir4t3zfCMRs3BQ-33" target="9VNOGcir4t3zfCMRs3BQ-15" edge="1">
          <mxGeometry relative="1" as="geometry" />
        </mxCell>
        <mxCell id="9VNOGcir4t3zfCMRs3BQ-33" value="взнос" style="ellipse;whiteSpace=wrap;html=1;" parent="WIyWlLk6GJQsqaUBKTNV-1" vertex="1">
          <mxGeometry x="880" y="780" width="140" height="70" as="geometry" />
        </mxCell>
        <mxCell id="9VNOGcir4t3zfCMRs3BQ-38" value="управление мероприятиями" style="ellipse;whiteSpace=wrap;html=1;" parent="WIyWlLk6GJQsqaUBKTNV-1" vertex="1">
          <mxGeometry x="440" y="1020" width="140" height="70" as="geometry" />
        </mxCell>
        <mxCell id="9VNOGcir4t3zfCMRs3BQ-44" style="edgeStyle=orthogonalEdgeStyle;rounded=0;orthogonalLoop=1;jettySize=auto;html=1;entryX=1;entryY=0.5;entryDx=0;entryDy=0;dashed=1;dashPattern=8 8;curved=1;" parent="WIyWlLk6GJQsqaUBKTNV-1" source="9VNOGcir4t3zfCMRs3BQ-39" target="9VNOGcir4t3zfCMRs3BQ-38" edge="1">
          <mxGeometry relative="1" as="geometry" />
        </mxCell>
        <mxCell id="9VNOGcir4t3zfCMRs3BQ-39" value="добавлять мероприятие" style="ellipse;whiteSpace=wrap;html=1;" parent="WIyWlLk6GJQsqaUBKTNV-1" vertex="1">
          <mxGeometry x="750" y="920" width="140" height="70" as="geometry" />
        </mxCell>
        <mxCell id="9VNOGcir4t3zfCMRs3BQ-45" style="edgeStyle=orthogonalEdgeStyle;rounded=0;orthogonalLoop=1;jettySize=auto;html=1;dashed=1;dashPattern=8 8;entryX=1;entryY=0.5;entryDx=0;entryDy=0;" parent="WIyWlLk6GJQsqaUBKTNV-1" source="9VNOGcir4t3zfCMRs3BQ-40" target="9VNOGcir4t3zfCMRs3BQ-38" edge="1">
          <mxGeometry relative="1" as="geometry">
            <mxPoint x="590" y="1054.9999999999998" as="targetPoint" />
          </mxGeometry>
        </mxCell>
        <mxCell id="9VNOGcir4t3zfCMRs3BQ-40" value="удалять мероприятие" style="ellipse;whiteSpace=wrap;html=1;" parent="WIyWlLk6GJQsqaUBKTNV-1" vertex="1">
          <mxGeometry x="750" y="1020" width="140" height="70" as="geometry" />
        </mxCell>
        <mxCell id="9VNOGcir4t3zfCMRs3BQ-47" style="edgeStyle=orthogonalEdgeStyle;rounded=0;orthogonalLoop=1;jettySize=auto;html=1;entryX=1;entryY=0.5;entryDx=0;entryDy=0;curved=1;dashed=1;dashPattern=8 8;" parent="WIyWlLk6GJQsqaUBKTNV-1" source="9VNOGcir4t3zfCMRs3BQ-41" target="9VNOGcir4t3zfCMRs3BQ-38" edge="1">
          <mxGeometry relative="1" as="geometry" />
        </mxCell>
        <mxCell id="9VNOGcir4t3zfCMRs3BQ-41" value="обновлять мероприятие" style="ellipse;whiteSpace=wrap;html=1;" parent="WIyWlLk6GJQsqaUBKTNV-1" vertex="1">
          <mxGeometry x="750" y="1120" width="140" height="70" as="geometry" />
        </mxCell>
        <mxCell id="9VNOGcir4t3zfCMRs3BQ-54" style="edgeStyle=orthogonalEdgeStyle;rounded=0;orthogonalLoop=1;jettySize=auto;html=1;entryX=1;entryY=0.5;entryDx=0;entryDy=0;dashed=1;dashPattern=8 8;curved=1;" parent="WIyWlLk6GJQsqaUBKTNV-1" source="9VNOGcir4t3zfCMRs3BQ-52" target="9VNOGcir4t3zfCMRs3BQ-15" edge="1">
          <mxGeometry relative="1" as="geometry" />
        </mxCell>
        <mxCell id="9VNOGcir4t3zfCMRs3BQ-52" value="отмена бронирования" style="ellipse;whiteSpace=wrap;html=1;" parent="WIyWlLk6GJQsqaUBKTNV-1" vertex="1">
          <mxGeometry x="890" y="670" width="140" height="70" as="geometry" />
        </mxCell>
        <mxCell id="9VNOGcir4t3zfCMRs3BQ-56" value="Диаграмма деятельности:" style="text;html=1;align=center;verticalAlign=middle;resizable=0;points=[];autosize=1;strokeColor=none;fillColor=none;fontSize=25;" parent="WIyWlLk6GJQsqaUBKTNV-1" vertex="1">
          <mxGeometry x="360" y="1333" width="330" height="40" as="geometry" />
        </mxCell>
        <mxCell id="9VNOGcir4t3zfCMRs3BQ-58" value="Диаграмма вариантов использования:" style="text;html=1;align=center;verticalAlign=middle;resizable=0;points=[];autosize=1;strokeColor=none;fillColor=none;fontSize=25;" parent="WIyWlLk6GJQsqaUBKTNV-1" vertex="1">
          <mxGeometry x="275" y="120" width="470" height="40" as="geometry" />
        </mxCell>
        <mxCell id="9VNOGcir4t3zfCMRs3BQ-63" style="edgeStyle=orthogonalEdgeStyle;rounded=0;orthogonalLoop=1;jettySize=auto;html=1;" parent="WIyWlLk6GJQsqaUBKTNV-1" source="9VNOGcir4t3zfCMRs3BQ-61" target="9VNOGcir4t3zfCMRs3BQ-62" edge="1">
          <mxGeometry relative="1" as="geometry" />
        </mxCell>
        <mxCell id="9VNOGcir4t3zfCMRs3BQ-64" value="выбор товара" style="edgeLabel;html=1;align=center;verticalAlign=middle;resizable=0;points=[];" parent="9VNOGcir4t3zfCMRs3BQ-63" vertex="1" connectable="0">
          <mxGeometry x="-0.3593" y="2" relative="1" as="geometry">
            <mxPoint as="offset" />
          </mxGeometry>
        </mxCell>
        <mxCell id="9VNOGcir4t3zfCMRs3BQ-61" value="" style="shape=ellipse;html=1;fillColor=strokeColor;fontSize=18;fontColor=#ffffff;" parent="WIyWlLk6GJQsqaUBKTNV-1" vertex="1">
          <mxGeometry x="490" y="1420" width="40" height="40" as="geometry" />
        </mxCell>
        <mxCell id="9VNOGcir4t3zfCMRs3BQ-66" style="edgeStyle=orthogonalEdgeStyle;rounded=0;orthogonalLoop=1;jettySize=auto;html=1;entryX=0.5;entryY=0;entryDx=0;entryDy=0;" parent="WIyWlLk6GJQsqaUBKTNV-1" source="9VNOGcir4t3zfCMRs3BQ-62" target="9VNOGcir4t3zfCMRs3BQ-65" edge="1">
          <mxGeometry relative="1" as="geometry" />
        </mxCell>
        <mxCell id="9VNOGcir4t3zfCMRs3BQ-67" value="заполнение данных&lt;br&gt;[ФИО, телефон, адрес]" style="edgeLabel;html=1;align=center;verticalAlign=middle;resizable=0;points=[];" parent="9VNOGcir4t3zfCMRs3BQ-66" vertex="1" connectable="0">
          <mxGeometry x="-0.0511" relative="1" as="geometry">
            <mxPoint as="offset" />
          </mxGeometry>
        </mxCell>
        <mxCell id="9VNOGcir4t3zfCMRs3BQ-62" value="Добавление в корзину" style="shape=rect;rounded=1;html=1;whiteSpace=wrap;align=center;" parent="WIyWlLk6GJQsqaUBKTNV-1" vertex="1">
          <mxGeometry x="460" y="1550" width="100" height="40" as="geometry" />
        </mxCell>
        <mxCell id="9VNOGcir4t3zfCMRs3BQ-69" style="edgeStyle=orthogonalEdgeStyle;rounded=0;orthogonalLoop=1;jettySize=auto;html=1;entryX=0.5;entryY=0;entryDx=0;entryDy=0;" parent="WIyWlLk6GJQsqaUBKTNV-1" source="9VNOGcir4t3zfCMRs3BQ-65" target="9VNOGcir4t3zfCMRs3BQ-68" edge="1">
          <mxGeometry relative="1" as="geometry" />
        </mxCell>
        <mxCell id="9VNOGcir4t3zfCMRs3BQ-70" value="покупатель оплачивает заказ&lt;br&gt;[номер карты, cvv, dateExpire]" style="edgeLabel;html=1;align=center;verticalAlign=middle;resizable=0;points=[];" parent="9VNOGcir4t3zfCMRs3BQ-69" vertex="1" connectable="0">
          <mxGeometry x="-0.0344" y="-1" relative="1" as="geometry">
            <mxPoint as="offset" />
          </mxGeometry>
        </mxCell>
        <mxCell id="9VNOGcir4t3zfCMRs3BQ-65" value="Оформление заказа" style="shape=rect;rounded=1;html=1;whiteSpace=wrap;align=center;" parent="WIyWlLk6GJQsqaUBKTNV-1" vertex="1">
          <mxGeometry x="460" y="1690" width="100" height="40" as="geometry" />
        </mxCell>
        <mxCell id="9VNOGcir4t3zfCMRs3BQ-71" style="edgeStyle=orthogonalEdgeStyle;rounded=0;orthogonalLoop=1;jettySize=auto;html=1;entryX=1;entryY=0.5;entryDx=0;entryDy=0;exitX=1;exitY=0.5;exitDx=0;exitDy=0;" parent="WIyWlLk6GJQsqaUBKTNV-1" source="9VNOGcir4t3zfCMRs3BQ-73" target="9VNOGcir4t3zfCMRs3BQ-65" edge="1">
          <mxGeometry relative="1" as="geometry">
            <Array as="points">
              <mxPoint x="660" y="1980" />
              <mxPoint x="660" y="1710" />
            </Array>
          </mxGeometry>
        </mxCell>
        <mxCell id="9VNOGcir4t3zfCMRs3BQ-72" value="оплата не прошла" style="edgeLabel;html=1;align=center;verticalAlign=middle;resizable=0;points=[];" parent="9VNOGcir4t3zfCMRs3BQ-71" vertex="1" connectable="0">
          <mxGeometry x="0.0144" relative="1" as="geometry">
            <mxPoint as="offset" />
          </mxGeometry>
        </mxCell>
        <mxCell id="9VNOGcir4t3zfCMRs3BQ-74" style="edgeStyle=orthogonalEdgeStyle;rounded=0;orthogonalLoop=1;jettySize=auto;html=1;entryX=0.5;entryY=0;entryDx=0;entryDy=0;" parent="WIyWlLk6GJQsqaUBKTNV-1" source="9VNOGcir4t3zfCMRs3BQ-68" target="9VNOGcir4t3zfCMRs3BQ-73" edge="1">
          <mxGeometry relative="1" as="geometry" />
        </mxCell>
        <mxCell id="9VNOGcir4t3zfCMRs3BQ-75" value="проверка оплаты" style="edgeLabel;html=1;align=center;verticalAlign=middle;resizable=0;points=[];" parent="9VNOGcir4t3zfCMRs3BQ-74" vertex="1" connectable="0">
          <mxGeometry x="-0.0877" y="-1" relative="1" as="geometry">
            <mxPoint x="1" as="offset" />
          </mxGeometry>
        </mxCell>
        <mxCell id="9VNOGcir4t3zfCMRs3BQ-68" value="Опалата заказа" style="shape=rect;rounded=1;html=1;whiteSpace=wrap;align=center;" parent="WIyWlLk6GJQsqaUBKTNV-1" vertex="1">
          <mxGeometry x="460" y="1830" width="100" height="40" as="geometry" />
        </mxCell>
        <mxCell id="9VNOGcir4t3zfCMRs3BQ-77" style="edgeStyle=orthogonalEdgeStyle;rounded=0;orthogonalLoop=1;jettySize=auto;html=1;entryX=0.5;entryY=0;entryDx=0;entryDy=0;" parent="WIyWlLk6GJQsqaUBKTNV-1" source="9VNOGcir4t3zfCMRs3BQ-73" target="9VNOGcir4t3zfCMRs3BQ-76" edge="1">
          <mxGeometry relative="1" as="geometry" />
        </mxCell>
        <mxCell id="9VNOGcir4t3zfCMRs3BQ-78" value="обработка заказа на складе" style="edgeLabel;html=1;align=center;verticalAlign=middle;resizable=0;points=[];" parent="9VNOGcir4t3zfCMRs3BQ-77" vertex="1" connectable="0">
          <mxGeometry x="-0.0361" y="2" relative="1" as="geometry">
            <mxPoint as="offset" />
          </mxGeometry>
        </mxCell>
        <mxCell id="9VNOGcir4t3zfCMRs3BQ-73" value="Подтверждение оплаты" style="shape=rect;rounded=1;html=1;whiteSpace=wrap;align=center;" parent="WIyWlLk6GJQsqaUBKTNV-1" vertex="1">
          <mxGeometry x="460" y="1960" width="100" height="40" as="geometry" />
        </mxCell>
        <mxCell id="9VNOGcir4t3zfCMRs3BQ-80" style="edgeStyle=orthogonalEdgeStyle;rounded=0;orthogonalLoop=1;jettySize=auto;html=1;" parent="WIyWlLk6GJQsqaUBKTNV-1" source="9VNOGcir4t3zfCMRs3BQ-76" target="9VNOGcir4t3zfCMRs3BQ-79" edge="1">
          <mxGeometry relative="1" as="geometry" />
        </mxCell>
        <mxCell id="9VNOGcir4t3zfCMRs3BQ-82" value="отправление заказа на доставку" style="edgeLabel;html=1;align=center;verticalAlign=middle;resizable=0;points=[];" parent="9VNOGcir4t3zfCMRs3BQ-80" vertex="1" connectable="0">
          <mxGeometry x="-0.137" y="-1" relative="1" as="geometry">
            <mxPoint as="offset" />
          </mxGeometry>
        </mxCell>
        <mxCell id="9VNOGcir4t3zfCMRs3BQ-76" value="Обработка заказа" style="shape=rect;rounded=1;html=1;whiteSpace=wrap;align=center;" parent="WIyWlLk6GJQsqaUBKTNV-1" vertex="1">
          <mxGeometry x="460" y="2090" width="100" height="40" as="geometry" />
        </mxCell>
        <mxCell id="9VNOGcir4t3zfCMRs3BQ-79" value="Отправка заказа" style="shape=rect;rounded=1;html=1;whiteSpace=wrap;align=center;" parent="WIyWlLk6GJQsqaUBKTNV-1" vertex="1">
          <mxGeometry x="460" y="2220" width="100" height="40" as="geometry" />
        </mxCell>
        <mxCell id="9VNOGcir4t3zfCMRs3BQ-83" value="" style="shape=mxgraph.sysml.actFinal;html=1;verticalLabelPosition=bottom;labelBackgroundColor=#ffffff;verticalAlign=top;" parent="WIyWlLk6GJQsqaUBKTNV-1" vertex="1">
          <mxGeometry x="490" y="2338" width="40" height="40" as="geometry" />
        </mxCell>
        <mxCell id="9VNOGcir4t3zfCMRs3BQ-84" style="edgeStyle=orthogonalEdgeStyle;rounded=0;orthogonalLoop=1;jettySize=auto;html=1;entryX=0.5;entryY=0;entryDx=0;entryDy=0;entryPerimeter=0;" parent="WIyWlLk6GJQsqaUBKTNV-1" source="9VNOGcir4t3zfCMRs3BQ-79" target="9VNOGcir4t3zfCMRs3BQ-83" edge="1">
          <mxGeometry relative="1" as="geometry" />
        </mxCell>
        <mxCell id="WFDRFSRvHRVxW06Eg9aG-0" value="Диаграмма состояния:" style="text;html=1;align=center;verticalAlign=middle;resizable=0;points=[];autosize=1;strokeColor=none;fillColor=none;fontSize=25;" vertex="1" parent="WIyWlLk6GJQsqaUBKTNV-1">
          <mxGeometry x="930" y="1333" width="290" height="40" as="geometry" />
        </mxCell>
        <mxCell id="WFDRFSRvHRVxW06Eg9aG-3" style="edgeStyle=orthogonalEdgeStyle;rounded=0;orthogonalLoop=1;jettySize=auto;html=1;entryX=0.5;entryY=0;entryDx=0;entryDy=0;" edge="1" parent="WIyWlLk6GJQsqaUBKTNV-1" source="WFDRFSRvHRVxW06Eg9aG-1" target="WFDRFSRvHRVxW06Eg9aG-2">
          <mxGeometry relative="1" as="geometry" />
        </mxCell>
        <mxCell id="WFDRFSRvHRVxW06Eg9aG-4" value="выбрал машину" style="edgeLabel;html=1;align=center;verticalAlign=middle;resizable=0;points=[];" vertex="1" connectable="0" parent="WFDRFSRvHRVxW06Eg9aG-3">
          <mxGeometry x="-0.1444" relative="1" as="geometry">
            <mxPoint as="offset" />
          </mxGeometry>
        </mxCell>
        <mxCell id="WFDRFSRvHRVxW06Eg9aG-1" value="" style="shape=ellipse;html=1;fillColor=strokeColor;fontSize=18;fontColor=#ffffff;" vertex="1" parent="WIyWlLk6GJQsqaUBKTNV-1">
          <mxGeometry x="1055" y="1420" width="40" height="40" as="geometry" />
        </mxCell>
        <mxCell id="WFDRFSRvHRVxW06Eg9aG-6" style="edgeStyle=orthogonalEdgeStyle;rounded=0;orthogonalLoop=1;jettySize=auto;html=1;entryX=0.5;entryY=0;entryDx=0;entryDy=0;" edge="1" parent="WIyWlLk6GJQsqaUBKTNV-1" source="WFDRFSRvHRVxW06Eg9aG-2" target="WFDRFSRvHRVxW06Eg9aG-5">
          <mxGeometry relative="1" as="geometry" />
        </mxCell>
        <mxCell id="WFDRFSRvHRVxW06Eg9aG-7" value="подтвердил заказ" style="edgeLabel;html=1;align=center;verticalAlign=middle;resizable=0;points=[];" vertex="1" connectable="0" parent="WFDRFSRvHRVxW06Eg9aG-6">
          <mxGeometry x="-0.0698" relative="1" as="geometry">
            <mxPoint as="offset" />
          </mxGeometry>
        </mxCell>
        <mxCell id="WFDRFSRvHRVxW06Eg9aG-2" value="Ождание подтверждения заказа" style="shape=rect;rounded=1;html=1;whiteSpace=wrap;align=center;" vertex="1" parent="WIyWlLk6GJQsqaUBKTNV-1">
          <mxGeometry x="1025" y="1540" width="100" height="40" as="geometry" />
        </mxCell>
        <mxCell id="WFDRFSRvHRVxW06Eg9aG-9" style="edgeStyle=orthogonalEdgeStyle;rounded=0;orthogonalLoop=1;jettySize=auto;html=1;" edge="1" parent="WIyWlLk6GJQsqaUBKTNV-1" source="WFDRFSRvHRVxW06Eg9aG-5" target="WFDRFSRvHRVxW06Eg9aG-8">
          <mxGeometry relative="1" as="geometry" />
        </mxCell>
        <mxCell id="WFDRFSRvHRVxW06Eg9aG-10" value="получил заказ" style="edgeLabel;html=1;align=center;verticalAlign=middle;resizable=0;points=[];" vertex="1" connectable="0" parent="WFDRFSRvHRVxW06Eg9aG-9">
          <mxGeometry x="-0.0936" relative="1" as="geometry">
            <mxPoint as="offset" />
          </mxGeometry>
        </mxCell>
        <mxCell id="WFDRFSRvHRVxW06Eg9aG-5" value="Машина в пути" style="shape=rect;rounded=1;html=1;whiteSpace=wrap;align=center;" vertex="1" parent="WIyWlLk6GJQsqaUBKTNV-1">
          <mxGeometry x="1025" y="1650" width="100" height="40" as="geometry" />
        </mxCell>
        <mxCell id="WFDRFSRvHRVxW06Eg9aG-12" style="edgeStyle=orthogonalEdgeStyle;rounded=0;orthogonalLoop=1;jettySize=auto;html=1;entryX=0.5;entryY=0;entryDx=0;entryDy=0;" edge="1" parent="WIyWlLk6GJQsqaUBKTNV-1" source="WFDRFSRvHRVxW06Eg9aG-8" target="WFDRFSRvHRVxW06Eg9aG-11">
          <mxGeometry relative="1" as="geometry" />
        </mxCell>
        <mxCell id="WFDRFSRvHRVxW06Eg9aG-13" value="сел в автомобиль" style="edgeLabel;html=1;align=center;verticalAlign=middle;resizable=0;points=[];" vertex="1" connectable="0" parent="WFDRFSRvHRVxW06Eg9aG-12">
          <mxGeometry x="-0.0264" y="1" relative="1" as="geometry">
            <mxPoint as="offset" />
          </mxGeometry>
        </mxCell>
        <mxCell id="WFDRFSRvHRVxW06Eg9aG-8" value="Машина прибыла" style="shape=rect;rounded=1;html=1;whiteSpace=wrap;align=center;" vertex="1" parent="WIyWlLk6GJQsqaUBKTNV-1">
          <mxGeometry x="1025" y="1760" width="100" height="40" as="geometry" />
        </mxCell>
        <mxCell id="WFDRFSRvHRVxW06Eg9aG-16" style="edgeStyle=orthogonalEdgeStyle;rounded=0;orthogonalLoop=1;jettySize=auto;html=1;" edge="1" parent="WIyWlLk6GJQsqaUBKTNV-1" source="WFDRFSRvHRVxW06Eg9aG-11" target="WFDRFSRvHRVxW06Eg9aG-14">
          <mxGeometry relative="1" as="geometry" />
        </mxCell>
        <mxCell id="WFDRFSRvHRVxW06Eg9aG-17" value="завершил поезду" style="edgeLabel;html=1;align=center;verticalAlign=middle;resizable=0;points=[];" vertex="1" connectable="0" parent="WFDRFSRvHRVxW06Eg9aG-16">
          <mxGeometry x="-0.1185" y="-1" relative="1" as="geometry">
            <mxPoint as="offset" />
          </mxGeometry>
        </mxCell>
        <mxCell id="WFDRFSRvHRVxW06Eg9aG-11" value="Поездка начата" style="shape=rect;rounded=1;html=1;whiteSpace=wrap;align=center;" vertex="1" parent="WIyWlLk6GJQsqaUBKTNV-1">
          <mxGeometry x="1025" y="1880" width="100" height="40" as="geometry" />
        </mxCell>
        <mxCell id="WFDRFSRvHRVxW06Eg9aG-19" style="edgeStyle=orthogonalEdgeStyle;rounded=0;orthogonalLoop=1;jettySize=auto;html=1;entryX=0.5;entryY=0;entryDx=0;entryDy=0;" edge="1" parent="WIyWlLk6GJQsqaUBKTNV-1" source="WFDRFSRvHRVxW06Eg9aG-14" target="WFDRFSRvHRVxW06Eg9aG-18">
          <mxGeometry relative="1" as="geometry" />
        </mxCell>
        <mxCell id="WFDRFSRvHRVxW06Eg9aG-20" value="оплачивает поездку" style="edgeLabel;html=1;align=center;verticalAlign=middle;resizable=0;points=[];" vertex="1" connectable="0" parent="WFDRFSRvHRVxW06Eg9aG-19">
          <mxGeometry x="0.0016" y="-1" relative="1" as="geometry">
            <mxPoint as="offset" />
          </mxGeometry>
        </mxCell>
        <mxCell id="WFDRFSRvHRVxW06Eg9aG-14" value="Ожидание оплаты" style="shape=rect;rounded=1;html=1;whiteSpace=wrap;align=center;" vertex="1" parent="WIyWlLk6GJQsqaUBKTNV-1">
          <mxGeometry x="1025" y="1980" width="100" height="40" as="geometry" />
        </mxCell>
        <mxCell id="WFDRFSRvHRVxW06Eg9aG-18" value="Заказ отменен" style="shape=rect;rounded=1;html=1;whiteSpace=wrap;align=center;" vertex="1" parent="WIyWlLk6GJQsqaUBKTNV-1">
          <mxGeometry x="1025" y="2090" width="100" height="40" as="geometry" />
        </mxCell>
        <mxCell id="WFDRFSRvHRVxW06Eg9aG-21" value="" style="shape=mxgraph.sysml.actFinal;html=1;verticalLabelPosition=bottom;labelBackgroundColor=#ffffff;verticalAlign=top;" vertex="1" parent="WIyWlLk6GJQsqaUBKTNV-1">
          <mxGeometry x="1055" y="2180" width="40" height="40" as="geometry" />
        </mxCell>
        <mxCell id="WFDRFSRvHRVxW06Eg9aG-22" style="edgeStyle=orthogonalEdgeStyle;rounded=0;orthogonalLoop=1;jettySize=auto;html=1;entryX=0.5;entryY=0;entryDx=0;entryDy=0;entryPerimeter=0;" edge="1" parent="WIyWlLk6GJQsqaUBKTNV-1" source="WFDRFSRvHRVxW06Eg9aG-18" target="WFDRFSRvHRVxW06Eg9aG-21">
          <mxGeometry relative="1" as="geometry" />
        </mxCell>
      </root>
    </mxGraphModel>
  </diagram>
</mxfile>
